<mxfile host="Electron" modified="2023-04-03T05:40:21.071Z" agent="Mozilla/5.0 (Windows NT 10.0; Win64; x64) AppleWebKit/537.36 (KHTML, like Gecko) draw.io/21.1.2 Chrome/106.0.5249.199 Electron/21.4.3 Safari/537.36" etag="vgknBv8f9_YVFdbZZTFG" version="21.1.2" type="device">
  <diagram id="C5RBs43oDa-KdzZeNtuy" name="Page-1">
    <mxGraphModel dx="2073" dy="1048" grid="1" gridSize="10" guides="1" tooltips="1" connect="1" arrows="1" fold="1" page="1" pageScale="1" pageWidth="827" pageHeight="1169" math="0" shadow="0">
      <root>
        <mxCell id="WIyWlLk6GJQsqaUBKTNV-0" />
        <mxCell id="WIyWlLk6GJQsqaUBKTNV-1" parent="WIyWlLk6GJQsqaUBKTNV-0" />
        <mxCell id="yQKlSZmlMiYKrW3qrxQF-17" value="" style="edgeStyle=orthogonalEdgeStyle;rounded=0;orthogonalLoop=1;jettySize=auto;html=1;" parent="WIyWlLk6GJQsqaUBKTNV-1" source="yQKlSZmlMiYKrW3qrxQF-0" target="yQKlSZmlMiYKrW3qrxQF-12" edge="1">
          <mxGeometry relative="1" as="geometry" />
        </mxCell>
        <mxCell id="yQKlSZmlMiYKrW3qrxQF-0" value="Documentar" style="rounded=1;whiteSpace=wrap;html=1;" parent="WIyWlLk6GJQsqaUBKTNV-1" vertex="1">
          <mxGeometry x="15" width="120" height="60" as="geometry" />
        </mxCell>
        <mxCell id="yQKlSZmlMiYKrW3qrxQF-28" style="edgeStyle=orthogonalEdgeStyle;rounded=0;orthogonalLoop=1;jettySize=auto;html=1;entryX=0.5;entryY=0;entryDx=0;entryDy=0;" parent="WIyWlLk6GJQsqaUBKTNV-1" source="yQKlSZmlMiYKrW3qrxQF-2" target="yQKlSZmlMiYKrW3qrxQF-4" edge="1">
          <mxGeometry relative="1" as="geometry" />
        </mxCell>
        <mxCell id="yQKlSZmlMiYKrW3qrxQF-2" value="Status da Documentação é Irregular" style="rounded=0;whiteSpace=wrap;html=1;" parent="WIyWlLk6GJQsqaUBKTNV-1" vertex="1">
          <mxGeometry x="318" y="555" width="120" height="60" as="geometry" />
        </mxCell>
        <mxCell id="yQKlSZmlMiYKrW3qrxQF-27" style="edgeStyle=orthogonalEdgeStyle;rounded=0;orthogonalLoop=1;jettySize=auto;html=1;entryX=0;entryY=0.5;entryDx=0;entryDy=0;" parent="WIyWlLk6GJQsqaUBKTNV-1" source="yQKlSZmlMiYKrW3qrxQF-3" target="yQKlSZmlMiYKrW3qrxQF-4" edge="1">
          <mxGeometry relative="1" as="geometry" />
        </mxCell>
        <mxCell id="yQKlSZmlMiYKrW3qrxQF-3" value="Status da Documentação&amp;nbsp;é Regular" style="rounded=0;whiteSpace=wrap;html=1;" parent="WIyWlLk6GJQsqaUBKTNV-1" vertex="1">
          <mxGeometry x="354" y="1160" width="120" height="60" as="geometry" />
        </mxCell>
        <mxCell id="yQKlSZmlMiYKrW3qrxQF-29" style="edgeStyle=orthogonalEdgeStyle;rounded=0;orthogonalLoop=1;jettySize=auto;html=1;entryX=0.5;entryY=0;entryDx=0;entryDy=0;" parent="WIyWlLk6GJQsqaUBKTNV-1" source="yQKlSZmlMiYKrW3qrxQF-4" target="yQKlSZmlMiYKrW3qrxQF-10" edge="1">
          <mxGeometry relative="1" as="geometry" />
        </mxCell>
        <mxCell id="yQKlSZmlMiYKrW3qrxQF-4" value="Retorne Status da Documentação&amp;nbsp;" style="rounded=0;whiteSpace=wrap;html=1;" parent="WIyWlLk6GJQsqaUBKTNV-1" vertex="1">
          <mxGeometry x="605" y="1160" width="120" height="60" as="geometry" />
        </mxCell>
        <mxCell id="yQKlSZmlMiYKrW3qrxQF-10" value="Fim" style="rounded=1;whiteSpace=wrap;html=1;" parent="WIyWlLk6GJQsqaUBKTNV-1" vertex="1">
          <mxGeometry x="605" y="1280" width="120" height="60" as="geometry" />
        </mxCell>
        <mxCell id="yQKlSZmlMiYKrW3qrxQF-18" value="Não" style="edgeStyle=orthogonalEdgeStyle;rounded=0;orthogonalLoop=1;jettySize=auto;html=1;entryX=0.5;entryY=0;entryDx=0;entryDy=0;" parent="WIyWlLk6GJQsqaUBKTNV-1" source="yQKlSZmlMiYKrW3qrxQF-12" target="yQKlSZmlMiYKrW3qrxQF-13" edge="1">
          <mxGeometry relative="1" as="geometry" />
        </mxCell>
        <mxCell id="yQKlSZmlMiYKrW3qrxQF-22" value="Sim" style="edgeStyle=orthogonalEdgeStyle;rounded=0;orthogonalLoop=1;jettySize=auto;html=1;entryX=0.5;entryY=0;entryDx=0;entryDy=0;" parent="WIyWlLk6GJQsqaUBKTNV-1" source="yQKlSZmlMiYKrW3qrxQF-12" target="yQKlSZmlMiYKrW3qrxQF-2" edge="1">
          <mxGeometry relative="1" as="geometry" />
        </mxCell>
        <mxCell id="yQKlSZmlMiYKrW3qrxQF-12" value="Id é nulo?" style="rhombus;whiteSpace=wrap;html=1;" parent="WIyWlLk6GJQsqaUBKTNV-1" vertex="1">
          <mxGeometry x="35" y="150" width="80" height="80" as="geometry" />
        </mxCell>
        <mxCell id="yQKlSZmlMiYKrW3qrxQF-19" value="Não" style="edgeStyle=orthogonalEdgeStyle;rounded=0;orthogonalLoop=1;jettySize=auto;html=1;entryX=0.5;entryY=0;entryDx=0;entryDy=0;" parent="WIyWlLk6GJQsqaUBKTNV-1" source="yQKlSZmlMiYKrW3qrxQF-13" target="yQKlSZmlMiYKrW3qrxQF-14" edge="1">
          <mxGeometry relative="1" as="geometry" />
        </mxCell>
        <mxCell id="yQKlSZmlMiYKrW3qrxQF-23" value="sim" style="edgeStyle=orthogonalEdgeStyle;rounded=0;orthogonalLoop=1;jettySize=auto;html=1;entryX=0.5;entryY=0;entryDx=0;entryDy=0;" parent="WIyWlLk6GJQsqaUBKTNV-1" source="yQKlSZmlMiYKrW3qrxQF-13" target="yQKlSZmlMiYKrW3qrxQF-2" edge="1">
          <mxGeometry relative="1" as="geometry" />
        </mxCell>
        <mxCell id="yQKlSZmlMiYKrW3qrxQF-13" value="Id é vazio ou em branco?" style="rhombus;whiteSpace=wrap;html=1;" parent="WIyWlLk6GJQsqaUBKTNV-1" vertex="1">
          <mxGeometry x="15" y="360" width="120" height="120" as="geometry" />
        </mxCell>
        <mxCell id="yQKlSZmlMiYKrW3qrxQF-20" value="Não" style="edgeStyle=orthogonalEdgeStyle;rounded=0;orthogonalLoop=1;jettySize=auto;html=1;entryX=0.519;entryY=0.047;entryDx=0;entryDy=0;entryPerimeter=0;" parent="WIyWlLk6GJQsqaUBKTNV-1" source="yQKlSZmlMiYKrW3qrxQF-14" target="yQKlSZmlMiYKrW3qrxQF-15" edge="1">
          <mxGeometry relative="1" as="geometry" />
        </mxCell>
        <mxCell id="yQKlSZmlMiYKrW3qrxQF-24" value="Sim" style="edgeStyle=orthogonalEdgeStyle;rounded=0;orthogonalLoop=1;jettySize=auto;html=1;entryX=0.5;entryY=1;entryDx=0;entryDy=0;" parent="WIyWlLk6GJQsqaUBKTNV-1" source="yQKlSZmlMiYKrW3qrxQF-14" target="yQKlSZmlMiYKrW3qrxQF-2" edge="1">
          <mxGeometry relative="1" as="geometry" />
        </mxCell>
        <mxCell id="yQKlSZmlMiYKrW3qrxQF-14" value="Número de páginas é menor do que 1?" style="rhombus;whiteSpace=wrap;html=1;" parent="WIyWlLk6GJQsqaUBKTNV-1" vertex="1">
          <mxGeometry y="600" width="150" height="150" as="geometry" />
        </mxCell>
        <mxCell id="yQKlSZmlMiYKrW3qrxQF-21" value="Não" style="edgeStyle=orthogonalEdgeStyle;rounded=0;orthogonalLoop=1;jettySize=auto;html=1;entryX=0.5;entryY=0;entryDx=0;entryDy=0;" parent="WIyWlLk6GJQsqaUBKTNV-1" source="yQKlSZmlMiYKrW3qrxQF-15" target="yQKlSZmlMiYKrW3qrxQF-16" edge="1">
          <mxGeometry relative="1" as="geometry" />
        </mxCell>
        <mxCell id="yQKlSZmlMiYKrW3qrxQF-25" value="Sim" style="edgeStyle=orthogonalEdgeStyle;rounded=0;orthogonalLoop=1;jettySize=auto;html=1;entryX=0.5;entryY=1;entryDx=0;entryDy=0;" parent="WIyWlLk6GJQsqaUBKTNV-1" source="yQKlSZmlMiYKrW3qrxQF-15" target="yQKlSZmlMiYKrW3qrxQF-2" edge="1">
          <mxGeometry relative="1" as="geometry" />
        </mxCell>
        <mxCell id="yQKlSZmlMiYKrW3qrxQF-15" value="Criação é nulo?" style="rhombus;whiteSpace=wrap;html=1;" parent="WIyWlLk6GJQsqaUBKTNV-1" vertex="1">
          <mxGeometry x="35" y="860" width="80" height="80" as="geometry" />
        </mxCell>
        <mxCell id="yQKlSZmlMiYKrW3qrxQF-26" value="Não" style="edgeStyle=orthogonalEdgeStyle;rounded=0;orthogonalLoop=1;jettySize=auto;html=1;entryX=0;entryY=0.5;entryDx=0;entryDy=0;exitX=0.5;exitY=1;exitDx=0;exitDy=0;" parent="WIyWlLk6GJQsqaUBKTNV-1" source="yQKlSZmlMiYKrW3qrxQF-16" target="yQKlSZmlMiYKrW3qrxQF-3" edge="1">
          <mxGeometry relative="1" as="geometry" />
        </mxCell>
        <mxCell id="KS3ABS2Mb7UywHC9ZGEV-0" value="Sim" style="edgeStyle=orthogonalEdgeStyle;rounded=0;orthogonalLoop=1;jettySize=auto;html=1;entryX=0.5;entryY=1;entryDx=0;entryDy=0;" edge="1" parent="WIyWlLk6GJQsqaUBKTNV-1" source="yQKlSZmlMiYKrW3qrxQF-16" target="yQKlSZmlMiYKrW3qrxQF-2">
          <mxGeometry relative="1" as="geometry" />
        </mxCell>
        <mxCell id="yQKlSZmlMiYKrW3qrxQF-16" value="Criação é depois de agora?" style="rhombus;whiteSpace=wrap;html=1;" parent="WIyWlLk6GJQsqaUBKTNV-1" vertex="1">
          <mxGeometry x="10" y="1039" width="130" height="130" as="geometry" />
        </mxCell>
      </root>
    </mxGraphModel>
  </diagram>
</mxfile>
